<?xml version="1.0" standalone="no"?>
<!DOCTYPE svg PUBLIC "-//W3C//DTD SVG 20010904//EN"
 "http://www.w3.org/TR/2001/REC-SVG-20010904/DTD/svg10.dtd">
<svg version="1.0" xmlns="http://www.w3.org/2000/svg"
 width="300.000000pt" height="300.000000pt" viewBox="0 0 300.000000 300.000000"
 preserveAspectRatio="xMidYMid meet">
<metadata>
Created by potrace 1.11, written by Peter Selinger 2001-2013
</metadata>
<g transform="translate(0.000000,300.000000) scale(0.100000,-0.100000)"
fill="#000000" stroke="none">
<path d="M1299 2453 c0 -16 -3 -40 -5 -55 -2 -16 -6 -40 -8 -55 -2 -16 -5 -30
-6 -33 -1 -3 -1 -36 -1 -75 0 -69 0 -70 -32 -85 -27 -13 -32 -20 -32 -50 0
-29 -5 -38 -30 -50 -16 -8 -57 -42 -91 -75 -168 -166 -223 -480 -143 -819 12
-50 25 -97 29 -105 4 -9 20 -47 35 -84 31 -76 88 -168 130 -210 15 -15 26 -29
24 -30 -2 -2 -20 -14 -41 -27 -21 -14 -40 -37 -45 -53 -7 -24 -17 -32 -63 -46
-68 -22 -117 -47 -122 -63 -4 -10 -11 -10 -34 2 -16 8 -36 19 -44 26 -38 29
-151 43 -240 29 -64 -10 -63 -10 -87 -23 -12 -7 -31 -12 -42 -12 -12 0 -21 -4
-21 -9 0 -5 -13 -14 -28 -20 -56 -23 -180 -160 -166 -183 3 -4 1 -8 -4 -8 -23
0 -60 -150 -55 -225 2 -27 8 -64 14 -82 l11 -33 1399 0 1399 0 0 274 0 275
-72 34 c-105 50 -135 58 -248 62 -61 3 -189 -20 -200 -35 -3 -4 -16 -11 -30
-15 -14 -4 -27 -11 -30 -14 -3 -4 -21 -17 -40 -28 -20 -12 -46 -33 -59 -47
-29 -31 -36 -32 -38 -8 -1 10 -12 41 -25 68 -18 38 -35 56 -77 81 -29 18 -56
32 -60 31 -3 -1 -24 3 -46 7 -22 5 -45 8 -50 7 -6 -1 -15 11 -21 26 -11 28
-82 72 -129 79 -11 2 -31 5 -45 7 -14 2 -29 4 -34 5 -5 1 0 11 11 24 30 32 68
104 89 167 16 46 19 84 18 235 -1 190 -9 370 -18 395 -3 8 -7 33 -10 55 -17
126 -82 274 -152 342 -52 50 -99 76 -171 92 -36 9 -53 18 -56 32 -5 17 -25 24
-62 21 -5 -1 -25 45 -44 101 -61 184 -100 252 -102 180z"/>
</g>
</svg>
